<svg width="24" height="24" viewBox="0 0 24 24" fill="none" xmlns="http://www.w3.org/2000/svg">
<g clip-path="url(#clip0_37_12969)">
<path fill-rule="evenodd" clip-rule="evenodd" d="M4.63509 13.0049C2.99981 14.0356 2.50971 16.1968 3.54041 17.8321C4.57112 19.4673 6.73231 19.9574 8.36759 18.9267C9.15521 18.4303 9.67631 17.6737 9.89118 16.8372L12.142 7.78854C12.4581 6.42869 13.2909 5.18506 14.5664 4.38113C17.1361 2.76144 20.5323 3.53162 22.152 6.10134C23.7717 8.67109 23.0015 12.0672 20.4318 13.6869C19.1936 14.4673 17.7613 14.6928 16.4314 14.4294L16.4248 14.4281L15.7283 14.2853C15.1873 14.1744 14.8386 13.6458 14.9495 13.1048C15.0605 12.5638 15.589 12.2151 16.13 12.326L16.8229 12.4681C17.6703 12.6352 18.5777 12.4914 19.3653 11.995C21.0006 10.9642 21.4907 8.80305 20.46 7.16777C19.4293 5.53249 17.2681 5.04239 15.6328 6.07309C14.819 6.58605 14.2895 7.37701 14.0887 8.24694L14.0869 8.25522L11.8295 17.33C11.4935 18.6433 10.6722 19.8383 9.43402 20.6187C6.8643 22.2384 3.46815 21.4682 1.84845 18.8985C0.228775 16.3288 0.998938 12.9326 3.56866 11.3129C4.84417 10.509 6.32536 10.2941 7.68857 10.5955L8.28311 10.7174C8.82412 10.8283 9.17278 11.3568 9.06187 11.8978C8.95096 12.4388 8.42247 12.7875 7.88145 12.6766L7.27067 12.5514L7.26236 12.5496C6.39095 12.3554 5.44892 12.4919 4.63509 13.0049Z" fill="#BDA787"></path>
</g>
<defs>
<clipPath id="clip0_37_12969">
<rect width="24" height="24" fill="white"></rect>
</clipPath>
</defs>
</svg>