<svg width="20" height="20" viewBox="0 0 20 20" fill="none" xmlns="http://www.w3.org/2000/svg">
<path d="M10 2C14.4183 2 18 5.58172 18 10C18 14.4183 14.4183 18 10 18C5.58172 18 2 14.4183 2 10C2 5.58172 5.58172 2 10 2ZM13.165 6.80078C12.7746 6.41034 12.1405 6.4105 11.75 6.80078L9.98242 8.56836L8.25 6.83594C7.85953 6.44584 7.22637 6.44577 6.83594 6.83594C6.44557 7.22635 6.44577 7.85946 6.83594 8.25L8.56836 9.98242L6.80078 11.75C6.41026 12.1405 6.41026 12.7745 6.80078 13.165C7.19127 13.555 7.82446 13.5552 8.21484 13.165L9.98242 11.3965L11.7861 13.2002C12.1767 13.5904 12.8098 13.5906 13.2002 13.2002C13.5904 12.8098 13.5903 12.1766 13.2002 11.7861L11.3965 9.98242L13.165 8.21484C13.5549 7.82444 13.5549 7.19119 13.165 6.80078Z" fill="#6B6761"></path>
</svg>