<svg width="24" height="24" viewBox="0 0 24 24" fill="none" xmlns="http://www.w3.org/2000/svg">
<path d="M12.4998 15.9258C14.3917 15.9258 15.9254 14.3921 15.9254 12.5002C15.9254 10.6084 14.3917 9.07469 12.4998 9.07469C10.6079 9.07469 9.07425 10.6084 9.07425 12.5002C9.07425 14.3921 10.6079 15.9258 12.4998 15.9258Z" fill="black"></path>
<path fill-rule="evenodd" clip-rule="evenodd" d="M2.5 12.5C2.5 8.5054 2.5 6.5081 3.45188 5.0695C3.87694 4.4271 4.4271 3.87694 5.0695 3.45188C6.5081 2.5 8.5054 2.5 12.5 2.5C16.4946 2.5 18.4919 2.5 19.9305 3.45188C20.5729 3.87694 21.1231 4.4271 21.5481 5.0695C22.5 6.5081 22.5 8.5054 22.5 12.5C22.5 16.4946 22.5 18.4919 21.5481 19.9305C21.1231 20.5729 20.5729 21.1231 19.9305 21.5481C18.4919 22.5 16.4946 22.5 12.5 22.5C8.5054 22.5 6.5081 22.5 5.0695 21.5481C4.4271 21.1231 3.87694 20.5729 3.45188 19.9305C2.5 18.4919 2.5 16.4946 2.5 12.5ZM17.6769 12.5002C17.6769 15.3595 15.3591 17.6774 12.4998 17.6774C9.64057 17.6774 7.32269 15.3595 7.32269 12.5002C7.32269 9.641 9.64057 7.32313 12.4998 7.32313C15.3591 7.32313 17.6769 9.641 17.6769 12.5002ZM17.8813 8.27949C18.5532 8.27949 19.0978 7.73486 19.0978 7.06302C19.0978 6.39118 18.5532 5.84655 17.8813 5.84655C17.2095 5.84655 16.6649 6.39118 16.6649 7.06302C16.6649 7.73486 17.2095 8.27949 17.8813 8.27949Z" fill="black"></path>
</svg>