<svg width="32" height="32" viewBox="0 0 32 32" fill="none" xmlns="http://www.w3.org/2000/svg">
<path d="M15.9997 21.4813C19.0267 21.4813 21.4806 19.0274 21.4806 16.0004C21.4806 12.9734 19.0267 10.5195 15.9997 10.5195C12.9727 10.5195 10.5188 12.9734 10.5188 16.0004C10.5188 19.0274 12.9727 21.4813 15.9997 21.4813Z" fill="#1A1E21"></path>
<path fill-rule="evenodd" clip-rule="evenodd" d="M0 16C0 9.60864 0 6.41296 1.52301 4.1112C2.2031 3.08336 3.08336 2.2031 4.1112 1.52301C6.41296 0 9.60864 0 16 0C22.3914 0 25.587 0 27.8888 1.52301C28.9166 2.2031 29.7969 3.08336 30.477 4.1112C32 6.41296 32 9.60864 32 16C32 22.3914 32 25.587 30.477 27.8888C29.7969 28.9166 28.9166 29.7969 27.8888 30.477C25.587 32 22.3914 32 16 32C9.60864 32 6.41296 32 4.1112 30.477C3.08336 29.7969 2.2031 28.9166 1.52301 27.8888C0 25.587 0 22.3914 0 16ZM24.2831 16.0004C24.2831 20.5752 20.5745 24.2838 15.9997 24.2838C11.4249 24.2838 7.71631 20.5752 7.71631 16.0004C7.71631 11.4256 11.4249 7.717 15.9997 7.717C20.5745 7.717 24.2831 11.4256 24.2831 16.0004ZM24.6101 9.24718C25.6851 9.24718 26.5565 8.37577 26.5565 7.30083C26.5565 6.22589 25.6851 5.35448 24.6101 5.35448C23.5352 5.35448 22.6638 6.22589 22.6638 7.30083C22.6638 8.37577 23.5352 9.24718 24.6101 9.24718Z" fill="#1A1E21"></path>
</svg>