<svg width="84" height="30" viewBox="0 0 84 30" fill="none" xmlns="http://www.w3.org/2000/svg">
<path d="M9.316 12.087H7.344L1.751 6.018L7.004 0.187H8.976L3.723 6.018L9.316 12.087ZM0 12.087V0.187H1.53V12.087H0Z" fill="white"></path>
<path d="M11.7012 1.768C12.8798 0.589333 14.3418 0 16.0872 0C17.8325 0 19.2945 0.589333 20.4732 1.768C21.6518 2.94667 22.2412 4.403 22.2412 6.137C22.2412 7.88233 21.6518 9.34433 20.4732 10.523C19.3058 11.6903 17.8438 12.274 16.0872 12.274C14.3305 12.274 12.8685 11.6903 11.7012 10.523C10.5338 9.35567 9.95018 7.89367 9.95018 6.137C9.95018 4.39167 10.5338 2.93533 11.7012 1.768ZM12.8402 9.469C13.7128 10.353 14.7952 10.795 16.0872 10.795C17.3792 10.795 18.4615 10.353 19.3342 9.469C20.2068 8.56233 20.6432 7.45167 20.6432 6.137C20.6432 4.82233 20.2068 3.71733 19.3342 2.822C18.4728 1.92667 17.3905 1.479 16.0872 1.479C14.7838 1.479 13.7015 1.92667 12.8402 2.822C11.9675 3.71733 11.5312 4.82233 11.5312 6.137C11.5312 7.45167 11.9675 8.56233 12.8402 9.469Z" fill="white"></path>
<path d="M29.1778 12.087H27.9368L22.8028 0.187H24.4178L28.5658 9.877L28.9568 8.925L32.6968 0.187H34.3118L29.1778 12.087Z" fill="white"></path>
<path d="M35.1425 12.087H33.5275L38.7465 0.187H39.9875L45.2065 12.087H43.5915L39.3755 2.38L35.1425 12.087Z" fill="white"></path>
<path d="M46.8164 0.187H48.3464V10.659H54.7894V12.087H46.8164V0.187Z" fill="white"></path>
<path d="M57.1729 1.768C58.3515 0.589333 59.8135 0 61.5589 0C63.3042 0 64.7662 0.589333 65.9449 1.768C67.1235 2.94667 67.7129 4.403 67.7129 6.137C67.7129 7.88233 67.1235 9.34433 65.9449 10.523C64.7775 11.6903 63.3155 12.274 61.5589 12.274C59.8022 12.274 58.3402 11.6903 57.1729 10.523C56.0055 9.35567 55.4219 7.89367 55.4219 6.137C55.4219 4.39167 56.0055 2.93533 57.1729 1.768ZM58.3119 9.469C59.1845 10.353 60.2669 10.795 61.5589 10.795C62.8509 10.795 63.9332 10.353 64.8059 9.469C65.6785 8.56233 66.1149 7.45167 66.1149 6.137C66.1149 4.82233 65.6785 3.71733 64.8059 2.822C63.9445 1.92667 62.8622 1.479 61.5589 1.479C60.2555 1.479 59.1732 1.92667 58.3119 2.822C57.4392 3.71733 57.0029 4.82233 57.0029 6.137C57.0029 7.45167 57.4392 8.56233 58.3119 9.469Z" fill="white"></path>
<path d="M74.6495 12.087H73.4085L68.2745 0.187H69.8895L74.0375 9.877L74.4285 8.925L78.1685 0.187H79.7835L74.6495 12.087Z" fill="white"></path>
<path d="M18.4742 18.5862L0.00946045 18.586V17.1528L24.4582 17.1582V18.5862H20.0042V29.0582H18.4742V18.5862Z" fill="white"></path>
<path d="M25.2767 29.0582H23.6617L28.8807 17.1582H30.1217L35.3407 29.0582H33.7257L29.5097 19.3512L25.2767 29.0582Z" fill="white"></path>
<path d="M38.9937 18.5862H34.5397V17.1582H44.9777V18.5862H40.5237V29.0582H38.9937V18.5862Z" fill="white"></path>
<path d="M50.3492 18.5862H45.8952V17.1582H56.3332V18.5862H51.8792V29.0582H50.3492V18.5862Z" fill="white"></path>
<path d="M63.0408 17.75H77.0046C79.2438 17.7501 80.6041 18.6516 81.4255 19.7422C82.2731 20.8677 82.5798 22.2434 82.5798 23.165C82.5797 24.2595 82.206 25.6115 81.3308 26.6758C80.4762 27.7149 79.1093 28.5243 77.0046 28.5244H63.0408C60.1252 28.5244 57.7859 26.4087 57.7859 23.1484C57.7859 19.8336 60.3032 17.75 63.0408 17.75Z" stroke="white" stroke-width="1.5"></path>
<rect x="79.9803" y="10.1069" width="1.98212" height="1.98212" fill="white"></rect>
</svg>