<svg width="84" height="30" viewBox="0 0 84 30" fill="none" xmlns="http://www.w3.org/2000/svg">
<path d="M9.316 12.087H7.344L1.751 6.018L7.004 0.187H8.976L3.723 6.018L9.316 12.087ZM0 12.087V0.187H1.53V12.087H0Z" fill="white"></path>
<path d="M11.7012 1.768C12.8798 0.589333 14.3418 0 16.0872 0C17.8325 0 19.2945 0.589333 20.4732 1.768C21.6518 2.94667 22.2412 4.403 22.2412 6.137C22.2412 7.88233 21.6518 9.34433 20.4732 10.523C19.3058 11.6903 17.8438 12.274 16.0872 12.274C14.3305 12.274 12.8685 11.6903 11.7012 10.523C10.5338 9.35567 9.95018 7.89367 9.95018 6.137C9.95018 4.39167 10.5338 2.93533 11.7012 1.768ZM12.8402 9.469C13.7128 10.353 14.7952 10.795 16.0872 10.795C17.3792 10.795 18.4615 10.353 19.3342 9.469C20.2068 8.56233 20.6432 7.45167 20.6432 6.137C20.6432 4.82233 20.2068 3.71733 19.3342 2.822C18.4728 1.92667 17.3905 1.479 16.0872 1.479C14.7838 1.479 13.7015 1.92667 12.8402 2.822C11.9675 3.71733 11.5312 4.82233 11.5312 6.137C11.5312 7.45167 11.9675 8.56233 12.8402 9.469Z" fill="white"></path>
<path d="M29.1778 12.087H27.9368L22.8028 0.187H24.4178L28.5658 9.877L28.9568 8.925L32.6968 0.187H34.3118L29.1778 12.087Z" fill="white"></path>
<path d="M35.1425 12.087H33.5275L38.7465 0.187H39.9875L45.2065 12.087H43.5915L39.3755 2.38L35.1425 12.087Z" fill="white"></path>
<path d="M46.8164 0.187H48.3464V10.659H54.7894V12.087H46.8164V0.187Z" fill="white"></path>
<path d="M57.1729 1.768C58.3515 0.589333 59.8135 0 61.5589 0C63.3042 0 64.7662 0.589333 65.9449 1.768C67.1235 2.94667 67.7129 4.403 67.7129 6.137C67.7129 7.88233 67.1235 9.34433 65.9449 10.523C64.7775 11.6903 63.3155 12.274 61.5589 12.274C59.8022 12.274 58.3402 11.6903 57.1729 10.523C56.0055 9.35567 55.4219 7.89367 55.4219 6.137C55.4219 4.39167 56.0055 2.93533 57.1729 1.768ZM58.3119 9.469C59.1845 10.353 60.2669 10.795 61.5589 10.795C62.8509 10.795 63.9332 10.353 64.8059 9.469C65.6785 8.56233 66.1149 7.45167 66.1149 6.137C66.1149 4.82233 65.6785 3.71733 64.8059 2.822C63.9445 1.92667 62.8622 1.479 61.5589 1.479C60.2555 1.479 59.1732 1.92667 58.3119 2.822C57.4392 3.71733 57.0029 4.82233 57.0029 6.137C57.0029 7.45167 57.4392 8.56233 58.3119 9.469Z" fill="white"></path>
<path d="M74.6495 12.087H73.4085L68.2745 0.187H69.8895L74.0375 9.877L74.4285 8.925L78.1685 0.187H79.7835L74.6495 12.087Z" fill="white"></path>
<path d="M18.4741 18.615H4.75446L4.75452 17.187H24.4581V18.615H20.0041V29.087H18.4741V18.615Z" fill="white"></path>
<path d="M25.2767 29.087H23.6617L28.8807 17.187H30.1217L35.3407 29.087H33.7257L32.5697 26.418H26.4327L25.2767 29.087ZM31.9407 24.99L29.5097 19.38L27.0617 24.99H31.9407Z" fill="white"></path>
<path d="M38.9937 18.615H34.5397V17.187H44.9777V18.615H40.5237V29.087H38.9937V18.615Z" fill="white"></path>
<path d="M50.3491 18.615H45.8951V17.187H56.3331V18.615H51.8791V29.087H50.3491V18.615Z" fill="white"></path>
<path d="M58.7787 18.768C59.9574 17.5893 61.4194 17 63.1647 17C64.9101 17 66.3721 17.5893 67.5507 18.768C68.7294 19.9467 69.3187 21.403 69.3187 23.137C69.3187 24.8823 68.7294 26.3443 67.5507 27.523C66.3834 28.6903 64.9214 29.274 63.1647 29.274C61.4081 29.274 59.9461 28.6903 58.7787 27.523C57.6114 26.3557 57.0277 24.8937 57.0277 23.137C57.0277 21.3917 57.6114 19.9353 58.7787 18.768ZM59.9177 26.469C60.7904 27.353 61.8727 27.795 63.1647 27.795C64.4567 27.795 65.5391 27.353 66.4117 26.469C67.2844 25.5623 67.7207 24.4517 67.7207 23.137C67.7207 21.8223 67.2844 20.7173 66.4117 19.822C65.5504 18.9267 64.4681 18.479 63.1647 18.479C61.8614 18.479 60.7791 18.9267 59.9177 19.822C59.0451 20.7173 58.6087 21.8223 58.6087 23.137C58.6087 24.4517 59.0451 25.5623 59.9177 26.469Z" fill="white"></path>
<path d="M72.7904 18.768C73.9691 17.5893 75.4311 17 77.1764 17C78.9218 17 80.3838 17.5893 81.5624 18.768C82.7411 19.9467 83.3304 21.403 83.3304 23.137C83.3304 24.8823 82.7411 26.3443 81.5624 27.523C80.3951 28.6903 78.9331 29.274 77.1764 29.274C75.4198 29.274 73.9578 28.6903 72.7904 27.523C71.6231 26.3557 71.0395 24.8937 71.0395 23.137C71.0395 21.3917 71.6231 19.9353 72.7904 18.768ZM73.9295 26.469C74.8021 27.353 75.8844 27.795 77.1764 27.795C78.4684 27.795 79.5508 27.353 80.4234 26.469C81.2961 25.5623 81.7324 24.4517 81.7324 23.137C81.7324 21.8223 81.2961 20.7173 80.4234 19.822C79.5621 18.9267 78.4798 18.479 77.1764 18.479C75.8731 18.479 74.7908 18.9267 73.9295 19.822C73.0568 20.7173 72.6204 21.8223 72.6204 23.137C72.6204 24.4517 73.0568 25.5623 73.9295 26.469Z" fill="white"></path>
<rect y="17.1543" width="3.46954" height="1.53473" fill="white"></rect>
</svg>