<svg width="24" height="24" viewBox="0 0 24 24" fill="none" xmlns="http://www.w3.org/2000/svg">
<path d="M10.6424 12.6435V15.3318C10.6424 15.5328 10.7103 15.7002 10.8461 15.8342C10.9819 15.9682 11.1493 16.0361 11.3485 16.0379H12.6519C12.8637 16.0379 13.0343 15.97 13.1638 15.8342C13.2932 15.6984 13.3579 15.531 13.3579 15.3318V12.6435H16.0463C16.2581 12.6435 16.4287 12.5756 16.5582 12.4398C16.6876 12.304 16.7523 12.1366 16.7523 11.9374V10.634C16.7523 10.4222 16.6876 10.2516 16.5582 10.1221C16.4287 9.99267 16.2586 9.92795 16.0477 9.92795H13.3579V7.23958C13.3579 7.02777 13.2932 6.85715 13.1638 6.72771C13.0343 6.59827 12.8637 6.53355 12.6519 6.53355H11.3457C11.1466 6.53355 10.9791 6.59827 10.8434 6.72771C10.7076 6.85715 10.6406 7.02777 10.6424 7.23958V9.92795H7.95405C7.7531 9.92795 7.58564 9.99267 7.45168 10.1221C7.31771 10.2516 7.24982 10.4217 7.24801 10.6326V11.9388C7.24801 12.1379 7.3159 12.3054 7.45168 12.4412C7.58745 12.5769 7.75491 12.6444 7.95405 12.6435H10.6424ZM11.6119 23.936C11.4761 23.9133 11.3485 23.8794 11.229 23.8341C8.5578 22.8158 6.43472 21.0887 4.85971 18.6529C3.2838 16.2171 2.49585 13.5803 2.49585 10.7426V4.92732C2.49585 4.46206 2.62846 4.04296 2.89367 3.67003C3.15798 3.2971 3.50059 3.0269 3.9215 2.85945L11.233 0.143923C11.4974 0.0479742 11.7531 0 12.0002 0C12.2473 0 12.5035 0.0479742 12.7687 0.143923L20.0789 2.85945C20.4989 3.02781 20.8415 3.298 21.1067 3.67003C21.3719 4.04296 21.5045 4.46206 21.5045 4.92732V10.7426C21.5045 13.5803 20.717 16.2171 19.142 18.6529C17.567 21.0887 15.4435 22.8158 12.7714 23.8341C12.6528 23.8794 12.5256 23.9133 12.3899 23.936C12.2541 23.9586 12.1242 23.9699 12.0002 23.9699C11.8762 23.9699 11.7476 23.9586 11.6119 23.936ZM12.0002 22.6909C14.3536 21.9441 16.2998 20.4506 17.8386 18.2103C19.3773 15.97 20.1467 13.4808 20.1467 10.7426V4.90152C20.1467 4.72772 20.0988 4.57113 20.0028 4.43173C19.9078 4.29234 19.7729 4.18824 19.5982 4.11945L12.288 1.40393C12.2011 1.36772 12.1052 1.34961 12.0002 1.34961C11.8952 1.34961 11.7992 1.36772 11.7123 1.40393L4.40215 4.11945C4.22745 4.18824 4.09258 4.29234 3.99753 4.43173C3.90158 4.57113 3.85361 4.72772 3.85361 4.90152V10.7426C3.85361 13.4808 4.62301 15.97 6.1618 18.2103C7.7006 20.4506 9.64673 21.9441 12.0002 22.6909Z" fill="#BDA787"></path>
</svg>