<svg width="32" height="32" viewBox="0 0 32 32" fill="none" xmlns="http://www.w3.org/2000/svg">
<path d="M1.96187 14.2309C1.96187 14.2309 16.1147 8.20977 21.0231 6.0896C22.9048 5.2416 29.2858 2.52777 29.2858 2.52777C29.2858 2.52777 32.2309 1.34057 31.9855 4.22388C31.9036 5.4112 31.2492 9.56657 30.5948 14.0613C29.613 20.4217 28.5495 27.3756 28.5495 27.3756C28.5495 27.3756 28.3859 29.3262 26.9952 29.6654C25.6045 30.0046 23.3137 28.4782 22.9048 28.1389C22.5775 27.8845 16.7691 24.0682 14.6421 22.2025C14.0694 21.6937 13.415 20.6761 14.7239 19.4888C17.669 16.6902 21.1867 13.2133 23.3137 11.0083C24.2955 9.99063 25.2771 7.61611 21.1867 10.4994C15.3784 14.6549 9.65184 18.5559 9.65184 18.5559C9.65184 18.5559 8.34287 19.4039 5.88866 18.6407C3.43433 17.8775 0.571038 16.8598 0.571038 16.8598C0.571038 16.8598 -1.39224 15.5878 1.96187 14.2309V14.2309Z" fill="#1A1E21"></path>
</svg>