<svg width="32" height="32" viewBox="0 0 32 32" fill="none" xmlns="http://www.w3.org/2000/svg">
<path d="M16.0049 0.00390625C24.8257 0.00390625 32.0009 7.17921 32.001 16C32.001 24.8206 24.8257 31.9961 16.0049 31.9961C12.7512 31.996 9.73256 31.0273 7.20312 29.3535L1.05273 31.3184L3.04688 25.376C1.12858 22.7427 2.83929e-05 19.4982 0 16C0 7.17914 7.17524 0.00390625 15.9961 0.00390625H16.0049ZM9.97754 7.32031C9.36606 7.32031 8.72645 7.49864 8.34082 7.89355C7.87069 8.37322 6.70521 9.49206 6.70508 11.7861C6.70508 14.0808 8.3789 16.3008 8.60449 16.6113C8.84147 16.9243 11.8691 21.6992 16.5693 23.6455C20.2457 25.1687 21.3371 25.0272 22.1738 24.8486C23.3963 24.5854 24.9298 23.6823 25.3154 22.5918C25.701 21.5008 25.701 20.5695 25.5879 20.3721C25.4751 20.1747 25.1643 20.0625 24.6943 19.8271C24.2244 19.592 21.9401 18.4633 21.5068 18.3125C21.0835 18.1527 20.6789 18.2097 20.3594 18.6611C19.908 19.2911 19.4659 19.9311 19.1084 20.3164C18.8263 20.617 18.3657 20.654 17.9805 20.4941C17.4632 20.2781 16.0145 19.7699 14.2275 18.1807C12.8455 16.9492 11.9055 15.417 11.6328 14.9561C11.36 14.486 11.6043 14.2127 11.8203 13.959C12.0555 13.6673 12.2815 13.4603 12.5166 13.1875C12.7516 12.9152 12.8828 12.7738 13.0332 12.4541C13.1932 12.1438 13.0806 11.824 12.9678 11.5889C12.8547 11.3529 11.915 9.05976 11.5293 8.12891C11.2191 7.3861 10.9836 7.35798 10.5137 7.33887C10.3352 7.32737 10.1564 7.3212 9.97754 7.32031Z" fill="#1A1E21"></path>
</svg>