<svg width="24" height="24" viewBox="0 0 24 24" fill="none" xmlns="http://www.w3.org/2000/svg">
<path d="M3 12.7107V16.4804M16.478 2.144C15.1186 1.23769 13.5219 0.752767 11.888 0.75C7.37002 0.75 3.61302 4.453 3.07202 9.2M21 16.4804V10.375C21.0028 8.86226 20.6691 7.36784 20.023 6" stroke="#BDA787" stroke-width="1.5" stroke-linecap="round" stroke-linejoin="round"></path>
<path d="M18 15.75V11.25C18 7.537 15.3 4.5 12 4.5C8.7 4.5 6 7.537 6 11.25V19.9247M18 21.8044V18.75M9 17.25V21.8044" stroke="#BDA787" stroke-width="1.5" stroke-linecap="round" stroke-linejoin="round"></path>
<path d="M15 20.25V12C15 9.937 13.65 8.25 12 8.25C10.35 8.25 9 9.937 9 12V14.25M12 20.25V23.25M12 12.6093V16.1111" stroke="#BDA787" stroke-width="1.5" stroke-linecap="round" stroke-linejoin="round"></path>
</svg>